<svg width="32" height="33" viewBox="0 0 32 33" fill="none" xmlns="http://www.w3.org/2000/svg">
<g clip-path="url(#clip0_9117_7349)">
<path d="M18.7257 1.6138C16.6482 1.40663 14.8823 2.85682 15.09 5.13568C12.4931 5.96436 11.9737 9.17549 13.8435 10.7293C12.4931 13.0081 14.3629 15.9085 17.1676 15.0798C19.0374 17.1515 22.5692 17.3587 24.2312 15.3906C27.1398 16.7372 30.2561 14.7691 29.4251 11.7651C31.7104 10.3149 31.2949 7.1038 28.8018 5.96436C29.4251 3.47833 27.1398 1.30304 24.6467 2.33889C23.2963 0.16361 20.4916 -0.04356 18.7257 1.6138Z" stroke="#00D1FF" stroke-width="1.14286" stroke-linecap="round" stroke-linejoin="round"/>
<path d="M15.9206 18.1874C16.4943 18.1874 16.9594 17.7236 16.9594 17.1515C16.9594 16.5794 16.4943 16.1157 15.9206 16.1157C15.3469 16.1157 14.8818 16.5794 14.8818 17.1515C14.8818 17.7236 15.3469 18.1874 15.9206 18.1874Z" stroke="#00D1FF" stroke-width="3.31429" stroke-linecap="round" stroke-linejoin="round"/>
<path d="M15.9207 7.6217V9.6934" stroke="#F0B429" stroke-width="1.14286" stroke-linecap="round" stroke-linejoin="round"/>
<path d="M17.5828 6.79303V10.5221" stroke="#F0B429" stroke-width="1.14286" stroke-linecap="round" stroke-linejoin="round"/>
<path d="M19.2446 5.96436V11.3508" stroke="#F0B429" stroke-width="1.14286" stroke-linecap="round" stroke-linejoin="round"/>
<path d="M20.907 6.79303V10.5221" stroke="#F0B429" stroke-width="1.14286" stroke-linecap="round" stroke-linejoin="round"/>
<path d="M21.634 10.9364H26.5163" stroke="#00D1FF" stroke-width="1.14286" stroke-linecap="round" stroke-linejoin="round"/>
<path d="M22.6729 6.79303V10.9364" stroke="#00D1FF" stroke-width="1.14286" stroke-linecap="round" stroke-linejoin="round"/>
<path d="M25.4773 6.79303V10.9364" stroke="#00D1FF" stroke-width="1.14286" stroke-linecap="round" stroke-linejoin="round"/>
<path d="M21.634 10.9364C22.6728 7.82889 25.4775 7.82889 26.5163 10.9364" stroke="#00D1FF" stroke-width="1.14286" stroke-linecap="round" stroke-linejoin="round"/>
<path d="M22.1533 6.79303H23.1921" stroke="#00D1FF" stroke-width="1.14286" stroke-linecap="round" stroke-linejoin="round"/>
<path d="M24.958 6.79303H25.9968" stroke="#00D1FF" stroke-width="1.14286" stroke-linecap="round" stroke-linejoin="round"/>
<path d="M27.3507 7.20876C26.7275 5.55141 28.5972 4.51556 29.636 5.75858C30.8826 5.13707 31.9213 6.58726 31.0903 7.83027C32.3368 8.86612 31.2981 10.7306 29.636 10.3163C29.2205 11.7665 27.143 11.5593 27.3507 9.90197C26.1006 9.69337 25.8929 7.82884 27.3507 7.20876Z" stroke="#F0B429" stroke-width="1.14286" stroke-linecap="round" stroke-linejoin="round"/>
<path d="M3.87099 19.2232C-0.491862 20.259 -1.01125 27.7172 3.24773 30.8247C6.57181 33.1036 8.85711 29.7889 8.02609 25.8526C7.19507 22.3307 6.36405 18.6017 3.87099 19.2232Z" fill="#8B5A2B" stroke="#0A1A2F" stroke-width="1.14286" stroke-linejoin="round"/>
<path d="M17.9985 19.2232C20.4915 19.8447 22.3613 22.9523 22.1536 26.6813C21.9458 30.6175 19.245 33.1036 15.9209 30.8247C11.9736 28.1315 12.8082 20.2591 17.9985 19.2232Z" fill="#8B5A2B" stroke="#0A1A2F" stroke-width="1.14286" stroke-linejoin="round"/>
<path d="M10.9344 31.4462C15.983 31.4462 20.0757 27.3651 20.0757 22.3307C20.0757 17.2964 15.983 13.2153 10.9344 13.2153C5.88588 13.2153 1.79321 17.2964 1.79321 22.3307C1.79321 27.3651 5.88588 31.4462 10.9344 31.4462Z" fill="#F5E7D0" stroke="#0A1A2F" stroke-width="1.14286" stroke-miterlimit="5.8"/>
<path opacity="0.95" d="M4.28646 21.502C3.87095 17.1515 6.57177 14.0439 9.89585 14.2511C8.02605 17.1515 8.02605 24.6096 9.89585 27.7171C6.57535 28.753 4.70197 25.854 4.28646 21.502Z" fill="#8B5A2B"/>
<path opacity="0.95" d="M17.583 21.502C17.9985 17.1515 15.2977 14.0439 11.9736 14.2511C13.8434 17.1515 13.8434 24.6096 11.9736 27.7171C15.2977 28.753 17.1675 25.854 17.583 21.502Z" fill="#8B5A2B"/>
<path opacity="0.95" d="M9.89578 13.8368C10.7268 12.5938 11.1423 12.5938 11.9733 13.8368C12.5966 14.8727 12.5966 16.1157 12.1811 17.3587C11.7656 18.8089 11.7656 20.8806 11.9733 22.9523C12.1811 25.4383 11.7656 27.51 10.9346 28.753C10.1035 27.51 9.68803 25.4383 9.89578 22.9523C10.1035 20.8806 10.1035 18.8089 9.68802 17.3587C9.27251 16.1157 9.27252 14.8727 9.89578 13.8368Z" fill="white"/>
<path d="M10.9345 31.4462C14.6062 31.4462 17.5827 29.2201 17.5827 26.4741C17.5827 23.7281 14.6062 21.5021 10.9345 21.5021C7.26286 21.5021 4.28638 23.7281 4.28638 26.4741C4.28638 29.2201 7.26286 31.4462 10.9345 31.4462Z" fill="#FFF3E0" stroke="#0A1A2F" stroke-width="1.14286" stroke-miterlimit="5.8"/>
<path d="M10.9345 24.6096C11.1803 24.6087 11.4239 24.6563 11.6512 24.7496C11.8785 24.843 12.0849 24.9803 12.2588 25.1536C12.4326 25.327 12.5703 25.5329 12.6639 25.7595C12.7575 25.9862 12.8052 26.229 12.8043 26.4742C12.8043 27.7172 11.9733 28.3387 10.9345 28.3387C9.89574 28.3387 9.06471 27.7172 9.06471 26.4742C9.06376 26.229 9.11148 25.9862 9.20511 25.7595C9.29874 25.5329 9.43643 25.327 9.61025 25.1536C9.78406 24.9803 9.99057 24.843 10.2179 24.7496C10.4451 24.6563 10.6887 24.6087 10.9345 24.6096Z" fill="#0A1A2F"/>
<path opacity="0.6" d="M10.3113 26.267C10.5407 26.267 10.7268 26.0815 10.7268 25.8526C10.7268 25.6238 10.5407 25.4383 10.3113 25.4383C10.0818 25.4383 9.89575 25.6238 9.89575 25.8526C9.89575 26.0815 10.0818 26.267 10.3113 26.267Z" fill="white"/>
<path d="M10.9345 28.1315C10.9345 29.0988 10.4497 29.6513 9.48022 29.7889" stroke="#0A1A2F" stroke-width="1.14286" stroke-miterlimit="5.8" stroke-linecap="round"/>
<path d="M10.9346 28.1315C10.9346 29.0988 11.4193 29.6513 12.3888 29.7889" stroke="#0A1A2F" stroke-width="1.14286" stroke-miterlimit="5.8" stroke-linecap="round"/>
<path d="M7.81819 22.4343C8.44926 22.4343 8.96084 21.9242 8.96084 21.2949C8.96084 20.6656 8.44926 20.1555 7.81819 20.1555C7.18712 20.1555 6.67554 20.6656 6.67554 21.2949C6.67554 21.9242 7.18712 22.4343 7.81819 22.4343Z" fill="#0A1A2F"/>
<path opacity="0.9" d="M7.40294 21.1913C7.57505 21.1913 7.71457 21.0522 7.71457 20.8806C7.71457 20.709 7.57505 20.5698 7.40294 20.5698C7.23083 20.5698 7.09131 20.709 7.09131 20.8806C7.09131 21.0522 7.23083 21.1913 7.40294 21.1913Z" fill="white"/>
<path d="M14.0509 22.4343C14.6819 22.4343 15.1935 21.9242 15.1935 21.2949C15.1935 20.6656 14.6819 20.1555 14.0509 20.1555C13.4198 20.1555 12.9082 20.6656 12.9082 21.2949C12.9082 21.9242 13.4198 22.4343 14.0509 22.4343Z" fill="#0A1A2F"/>
<path opacity="0.9" d="M13.6354 21.1913C13.8075 21.1913 13.947 21.0522 13.947 20.8806C13.947 20.709 13.8075 20.5698 13.6354 20.5698C13.4633 20.5698 13.3237 20.709 13.3237 20.8806C13.3237 21.0522 13.4633 21.1913 13.6354 21.1913Z" fill="white"/>
<path d="M5.94849 30.8247C9.27257 32.8964 12.5966 32.8964 15.9207 30.8247" stroke="#00D1FF" stroke-width="1.14286" stroke-miterlimit="5.8" stroke-linecap="round"/>
</g>
<defs>
<clipPath id="clip0_9117_7349">
<rect width="32" height="33" fill="white"/>
</clipPath>
</defs>
</svg>
